<?xml version="1.0" ?><svg viewBox="0 0 512 512" xmlns="http://www.w3.org/2000/svg"><g id="Cloud_two_step_verification"><path d="M471.93,354.79a6.499,6.499,0,0,0-7.6709,5.0654,25.08,25.08,0,1,1-24.5674-30.1386,6.5,6.5,0,0,0,0-13,38.0776,38.0776,0,1,0,37.3037,45.7441A6.5,6.5,0,0,0,471.93,354.79Z"/><path d="M463.203,325.2175l-23.0176,25.878-6.1416-6.45a6.5,6.5,0,1,0-9.416,8.9629L435.64,365.1755a6.5032,6.5032,0,0,0,4.708,2.0176c.0362,0,.0733,0,.11-.001a6.4986,6.4986,0,0,0,4.7461-2.1787l27.7119-31.1552a6.5,6.5,0,1,0-9.7129-8.6407Z"/><path d="M471.93,454.4353a6.4968,6.4968,0,0,0-7.6709,5.0654,25.08,25.08,0,1,1-24.5674-30.1386,6.5,6.5,0,0,0,0-13,38.0776,38.0776,0,1,0,37.3037,45.7441A6.5,6.5,0,0,0,471.93,454.4353Z"/><path d="M434.0438,444.2908a6.5,6.5,0,1,0-9.416,8.9629L435.64,464.82a6.5022,6.5022,0,0,0,4.708,2.0185c.0362,0,.0733,0,.11-.001a6.4982,6.4982,0,0,0,4.7461-2.1787l27.7119-31.1552a6.5,6.5,0,1,0-9.7129-8.6407l-23.0176,25.878Z"/><path d="M489.3173,196.8923A102.7616,102.7616,0,0,0,386.56,93.3542l-.2861.001h-.084a30.5155,30.5155,0,0,1-27.6045-17.5781,113.1126,113.1126,0,0,0-205.1718,0A30.5135,30.5135,0,0,1,125.81,93.3552h-.2011l-.17-.001A102.7616,102.7616,0,0,0,22.6825,196.8923c.417,56.2334,47.0557,101.9815,103.9658,101.9815a6.5,6.5,0,0,0,0-13c-49.7949,0-90.6015-39.96-90.9658-89.0772a89.76,89.76,0,0,1,89.8565-90.4424l.1523.001h.1191A43.5551,43.5551,0,0,0,165.203,81.2576a100.1115,100.1115,0,0,1,181.5938,0,43.5441,43.5441,0,0,0,39.375,25.0976h.12l.2685-.001a89.76,89.76,0,0,1,89.7569,90.4424c-.3643,49.1172-41.1709,89.0772-90.9658,89.0772a6.5,6.5,0,0,0,0,13C442.2616,298.8738,488.9,253.1257,489.3173,196.8923Z"/><path d="M126.578,126.5662a69.5485,69.5485,0,0,0-69.5469,70.08,6.5,6.5,0,0,0,6.4991,6.4522h.0488a6.5,6.5,0,0,0,6.4521-6.5479,56.5483,56.5483,0,0,1,56.53-56.9843l.374.0009h.0166a6.5,6.5,0,0,0,.0166-13Z"/><path d="M351.2382,422.4529h-191.54a30.323,30.323,0,0,0,0,60.646h191.54a30.323,30.323,0,0,0,0-60.646ZM196.3817,458.7761H172.8026a6,6,0,0,1,0-12h23.5791a6,6,0,0,1,0,12Zm47.251,0H220.0536a6,6,0,0,1,0-12h23.5791a6,6,0,0,1,0,12Zm47.251,0H267.3046a6,6,0,0,1,0-12h23.5791a6,6,0,0,1,0,12Zm47.25,0H314.5556a6,6,0,0,1,0-12h23.5781a6,6,0,0,1,0,12Z"/><path d="M351.2382,328.8318h-191.54a30.323,30.323,0,0,0-30.3227,30.323v0a30.3228,30.3228,0,0,0,30.3227,30.3228h191.54a30.3225,30.3225,0,0,0,30.3227-30.3228v0A30.3228,30.3228,0,0,0,351.2382,328.8318ZM196.3817,365.155H172.8026a6,6,0,1,1,0-12h23.5791a6,6,0,1,1,0,12Zm47.251,0H220.0536a6,6,0,1,1,0-12h23.5791a6,6,0,0,1,0,12Zm47.251,0H267.3046a6,6,0,1,1,0-12h23.5791a6,6,0,0,1,0,12Zm47.25,0H314.5556a6,6,0,0,1,0-12h23.5781a6,6,0,0,1,0,12Z"/><path d="M256,98.3005a52.1526,52.1526,0,0,0-52.0938,52.0928v1.89a3.8772,3.8772,0,0,1-3.873,3.873h-8.8975a22.3171,22.3171,0,0,0-22.292,22.292v96.6348a22.3168,22.3168,0,0,0,22.292,22.291H320.8641a22.3168,22.3168,0,0,0,22.292-22.291V178.448a22.3171,22.3171,0,0,0-22.292-22.292H308.0936v-5.7617A52.1527,52.1527,0,0,0,256,98.3005Zm11.7226,132.6914a8.5159,8.5159,0,0,0-3.3125,6.6827v10.4726a8.41,8.41,0,1,1-16.82,0V237.6824a8.23,8.23,0,0,0-3.1357-6.5533,18.9919,18.9919,0,1,1,23.2685-.1372Zm8.6182-74.8359H238.496a2.84,2.84,0,0,1-2.8369-2.8369v-1.64a20.3408,20.3408,0,0,1,40.6816-.0009Z"/></g></svg>