<?xml version="1.0" standalone="no"?>
<!DOCTYPE svg PUBLIC "-//W3C//DTD SVG 20010904//EN"
 "http://www.w3.org/TR/2001/REC-SVG-20010904/DTD/svg10.dtd">
<svg version="1.0" xmlns="http://www.w3.org/2000/svg"
 width="512.000000pt" height="512.000000pt" viewBox="0 0 512.000000 512.000000"
 preserveAspectRatio="xMidYMid meet">

<g transform="translate(0.000000,512.000000) scale(0.100000,-0.100000)"
fill="#000000" stroke="none">
<path d="M2370 5114 c-19 -2 -78 -9 -130 -15 -791 -90 -1522 -586 -1924 -1305
-146 -262 -252 -588 -297 -914 -18 -125 -18 -515 0 -640 105 -762 511 -1408
1147 -1826 834 -550 1954 -550 2788 0 589 387 996 994 1120 1670 156 845 -103
1682 -705 2285 -398 398 -880 639 -1449 726 -100 15 -472 28 -550 19z m540
-179 c964 -146 1748 -857 1978 -1795 53 -215 66 -330 66 -580 0 -250 -13 -365
-66 -580 -116 -474 -384 -912 -753 -1229 -359 -309 -764 -496 -1235 -568 -161
-24 -520 -24 -680 0 -731 113 -1342 521 -1720 1147 -159 264 -267 567 -317
890 -24 160 -24 520 0 680 95 617 399 1149 878 1533 377 301 816 476 1309 521
93 8 439 -4 540 -19z"/>
<path d="M2335 4789 c-757 -72 -1443 -550 -1785 -1244 -371 -752 -285 -1660
220 -2330 106 -140 141 -175 179 -175 41 0 81 38 81 79 0 21 -17 50 -66 107
-525 630 -631 1515 -269 2249 205 415 536 747 950 950 640 315 1404 279 2003
-93 98 -61 139 -67 171 -26 49 62 16 106 -148 199 -405 230 -867 328 -1336
284z"/>
<path d="M2505 4455 c-24 -23 -25 -28 -25 -175 0 -147 1 -152 25 -175 15 -16
36 -25 55 -25 19 0 40 9 55 25 24 23 25 28 25 175 0 147 -1 152 -25 175 -15
16 -36 25 -55 25 -19 0 -40 -9 -55 -25z"/>
<path d="M3945 4225 c-47 -46 -36 -75 68 -179 51 -51 103 -99 116 -105 47 -25
111 17 111 73 0 25 -18 48 -103 133 -88 88 -108 103 -135 103 -22 0 -41 -9
-57 -25z"/>
<path d="M1581 4204 c-12 -15 -21 -36 -21 -48 0 -22 94 -198 137 -253 20 -27
31 -33 63 -33 30 0 43 6 59 26 12 15 21 36 21 48 0 22 -117 235 -147 269 -26
28 -87 23 -112 -9z"/>
<path d="M3427 4213 c-30 -34 -147 -247 -147 -269 0 -12 9 -33 21 -48 16 -20
29 -26 59 -26 32 0 43 6 63 33 43 55 137 231 137 253 0 12 -9 33 -21 48 -25
32 -86 37 -112 9z"/>
<path d="M2505 3895 l-25 -24 0 -546 c0 -488 -2 -545 -16 -545 -27 0 -119
-101 -132 -146 -28 -94 -8 -169 63 -239 53 -54 102 -75 172 -75 l39 0 215
-372 c118 -205 225 -385 237 -400 28 -34 78 -38 113 -9 47 38 38 59 -203 476
l-226 390 17 25 c41 58 51 130 29 204 -13 45 -105 146 -132 146 -14 0 -16 57
-16 545 l0 546 -25 24 c-15 16 -36 25 -55 25 -19 0 -40 -9 -55 -25z m110
-1280 c50 -49 15 -135 -55 -135 -19 0 -40 9 -55 25 -50 49 -15 135 55 135 19
0 40 -9 55 -25z"/>
<path d="M4306 3819 c-41 -32 -35 -73 26 -171 159 -256 265 -573 297 -887 88
-851 -377 -1682 -1154 -2066 -504 -249 -1091 -282 -1622 -89 -194 70 -373 167
-547 296 -89 66 -122 73 -161 33 -31 -30 -32 -73 -4 -104 53 -57 282 -207 424
-278 428 -215 962 -284 1445 -187 441 90 847 314 1162 643 704 734 829 1825
311 2699 -78 131 -119 157 -177 111z"/>
<path d="M916 3539 c-20 -16 -26 -29 -26 -59 0 -32 6 -43 33 -63 56 -42 232
-137 254 -137 11 0 32 9 47 21 20 16 26 29 26 59 0 32 -6 43 -32 63 -56 43
-232 137 -254 137 -12 0 -33 -9 -48 -21z"/>
<path d="M4035 3504 c-149 -84 -165 -97 -165 -144 0 -30 6 -43 26 -59 15 -12
36 -21 48 -21 22 0 235 117 269 147 28 26 23 87 -9 112 -15 12 -36 21 -48 21
-12 0 -66 -25 -121 -56z"/>
<path d="M665 2615 c-16 -15 -25 -36 -25 -55 0 -19 9 -40 25 -55 23 -24 28
-25 175 -25 147 0 152 1 175 25 16 15 25 36 25 55 0 19 -9 40 -25 55 -23 24
-28 25 -175 25 -147 0 -152 -1 -175 -25z"/>
<path d="M4105 2615 c-16 -15 -25 -36 -25 -55 0 -19 9 -40 25 -55 23 -24 28
-25 175 -25 147 0 152 1 175 25 16 15 25 36 25 55 0 19 -9 40 -25 55 -23 24
-28 25 -175 25 -147 0 -152 -1 -175 -25z"/>
<path d="M1040 1774 c-143 -82 -150 -88 -150 -135 0 -29 6 -42 26 -58 15 -12
36 -21 48 -21 22 0 198 94 254 137 26 20 32 31 32 63 0 30 -6 43 -26 59 -15
12 -36 21 -48 21 -11 0 -73 -30 -136 -66z"/>
<path d="M3896 1819 c-20 -16 -26 -29 -26 -59 0 -32 6 -43 33 -63 57 -44 231
-137 255 -137 57 0 96 95 55 133 -34 30 -247 147 -269 147 -12 0 -33 -9 -48
-21z"/>
<path d="M1697 1218 c-44 -58 -137 -232 -137 -256 0 -13 11 -34 25 -47 31 -32
78 -33 108 -2 31 31 147 239 147 264 0 11 -9 32 -21 47 -16 20 -29 26 -59 26
-32 0 -43 -6 -63 -32z"/>
<path d="M3301 1224 c-12 -15 -21 -36 -21 -48 0 -27 123 -244 151 -268 45 -38
129 -3 129 54 0 24 -93 198 -137 256 -20 26 -31 32 -63 32 -30 0 -43 -6 -59
-26z"/>
<path d="M2505 1015 c-24 -23 -25 -28 -25 -175 0 -147 1 -152 25 -175 15 -16
36 -25 55 -25 19 0 40 9 55 25 24 23 25 28 25 175 0 147 -1 152 -25 175 -15
16 -36 25 -55 25 -19 0 -40 -9 -55 -25z"/>
</g>
</svg>
