<?xml version="1.0" standalone="no"?>
<!DOCTYPE svg PUBLIC "-//W3C//DTD SVG 20010904//EN"
 "http://www.w3.org/TR/2001/REC-SVG-20010904/DTD/svg10.dtd">
<svg version="1.0" xmlns="http://www.w3.org/2000/svg"
 width="512.000000pt" height="512.000000pt" viewBox="0 0 512.000000 512.000000"
 preserveAspectRatio="xMidYMid meet">

<g transform="translate(0.000000,512.000000) scale(0.100000,-0.100000)"
fill="#000000" stroke="none">
<path d="M2727 5100 c-20 -16 -27 -30 -27 -55 0 -28 10 -41 65 -89 47 -42 73
-75 97 -124 30 -61 33 -74 33 -162 0 -124 -25 -179 -125 -273 -58 -54 -70 -71
-70 -97 0 -24 8 -39 32 -58 112 -92 158 -173 166 -286 8 -128 -42 -241 -139
-315 -27 -20 -51 -47 -55 -60 -18 -62 40 -114 99 -90 48 20 160 137 190 199
92 191 69 410 -59 567 l-35 43 39 52 c78 104 112 203 112 323 0 160 -70 302
-199 404 -53 42 -89 48 -124 21z"/>
<path d="M2183 4372 c-29 -4 -53 -39 -53 -76 0 -21 10 -37 37 -60 67 -57 104
-100 131 -156 24 -48 27 -67 27 -150 0 -84 -3 -102 -29 -153 -27 -57 -67 -104
-134 -159 -55 -45 -40 -116 28 -133 52 -13 168 90 228 203 79 149 82 323 8
470 -35 69 -99 146 -148 180 -51 34 -65 39 -95 34z"/>
<path d="M3285 4372 c-34 -7 -55 -33 -55 -69 0 -34 15 -54 70 -98 73 -58 130
-177 130 -274 0 -69 -31 -161 -75 -221 -20 -27 -40 -50 -44 -50 -4 0 -24 -15
-44 -34 -59 -53 -49 -119 21 -141 32 -10 119 49 173 117 105 132 141 288 104
446 -27 112 -99 224 -184 286 -53 38 -68 44 -96 38z"/>
<path d="M1225 3131 c-47 -12 -72 -28 -102 -68 l-28 -36 0 -576 c1 -486 3
-587 16 -649 l16 -74 -66 7 c-107 11 -278 -42 -341 -105 -43 -43 -13 -130 45
-130 13 0 55 16 92 36 49 25 87 37 131 41 34 3 62 3 62 -1 0 -3 -61 -97 -135
-209 -143 -214 -154 -241 -117 -287 20 -24 82 -31 106 -11 7 6 68 94 136 196
129 194 145 207 134 110 -13 -113 -61 -230 -139 -333 -84 -112 -85 -112 -279
-112 l-166 0 -11 28 c-28 71 -5 231 47 334 31 61 32 112 2 132 -30 21 -81 20
-100 -1 -28 -32 -77 -137 -95 -203 -24 -88 -23 -248 1 -310 34 -88 42 -80 -82
-80 -151 0 -152 -2 -152 -159 1 -127 7 -144 56 -161 25 -8 1079 -210 1097
-210 4 0 7 -49 7 -109 0 -114 9 -155 38 -177 14 -11 234 -13 1138 -14 1089 0
1122 1 1145 19 23 18 24 27 27 150 2 72 6 131 10 131 18 0 1072 202 1100 211
17 6 37 19 42 29 6 10 10 71 10 134 0 171 43 156 -435 156 -393 0 -394 0 -415
-22 -37 -40 -22 -98 31 -117 21 -7 144 -11 350 -11 312 0 319 0 319 -20 0 -11
-3 -20 -6 -20 -3 0 -243 -45 -532 -100 l-526 -100 -1120 0 -1120 0 -526 100
c-290 55 -530 100 -533 100 -4 0 -7 9 -7 20 0 20 7 20 1719 20 1166 0 1729 3
1747 10 55 21 69 68 33 113 l-20 27 -257 2 -257 3 75 56 c162 122 283 253 382
416 28 46 56 83 62 83 6 0 40 -10 76 -22 97 -32 314 -32 423 0 278 80 480 282
559 559 32 111 32 305 0 416 -79 274 -273 471 -552 559 -64 20 -96 23 -216 23
l-142 0 -4 53 c-7 79 -56 134 -134 152 -56 13 -374 12 -413 -1 -54 -19 -69
-79 -28 -117 22 -21 32 -22 209 -22 103 0 193 -3 202 -6 12 -5 16 -21 16 -75
l0 -69 -1295 0 -1295 0 0 69 c0 54 4 70 16 75 9 3 451 6 983 6 l968 0 21 23
c39 41 25 97 -29 116 -36 13 -1922 14 -1974 2z m3103 -384 c197 -69 345 -218
409 -411 37 -113 39 -276 5 -386 -101 -324 -442 -522 -761 -441 -46 11 -86 22
-88 25 -3 2 45 165 52 174 1 1 24 -5 51 -13 72 -22 198 -19 269 5 85 29 136
62 194 126 86 94 121 183 121 309 0 134 -45 240 -142 332 -111 104 -240 142
-406 119 l-53 -8 3 93 3 94 30 7 c17 4 77 6 135 4 81 -3 122 -9 178 -29z
m-501 -474 c-3 -343 -7 -420 -21 -483 -94 -403 -348 -723 -714 -903 l-87 -42
-450 -3 c-305 -2 -462 0 -487 8 l-38 11 18 37 c74 148 47 318 -67 426 -126
117 -309 163 -533 133 l-58 -7 -31 67 c-17 38 -41 102 -54 143 -55 172 -57
189 -62 618 l-5 402 1297 0 1296 0 -4 -407z m438 136 c99 -50 158 -143 163
-261 4 -66 0 -85 -23 -135 -34 -76 -76 -119 -150 -154 -71 -34 -162 -39 -239
-13 -48 16 -48 17 -42 53 3 20 6 143 6 274 l0 237 28 11 c79 31 180 26 257
-12z m-2504 -1127 c50 -20 146 -89 136 -98 -2 -2 -107 -25 -233 -49 -126 -25
-239 -50 -251 -55 -55 -23 -65 -88 -21 -130 l22 -20 -78 0 c-43 0 -76 3 -74 8
2 4 24 50 50 102 27 55 53 126 62 168 8 41 16 75 18 77 17 14 104 23 198 21
90 -2 127 -7 171 -24z m96 -307 l-49 -45 -166 1 -167 1 205 43 c113 24 210 43
215 44 6 0 -12 -20 -38 -44z m1703 -760 l0 -65 -1025 0 -1025 0 0 65 0 65
1025 0 1025 0 0 -65z"/>
</g>
</svg>
