<?xml version="1.0" ?><!DOCTYPE svg  PUBLIC '-//W3C//DTD SVG 1.1//EN'  'http://www.w3.org/Graphics/SVG/1.1/DTD/svg11.dtd'><svg height="8.4666mm" style="shape-rendering:geometricPrecision; text-rendering:geometricPrecision; image-rendering:optimizeQuality; fill-rule:evenodd; clip-rule:evenodd" version="1.1" viewBox="0 0 846.66 846.66" width="8.4666mm" xml:space="preserve" xmlns="http://www.w3.org/2000/svg" xmlns:xlink="http://www.w3.org/1999/xlink"><defs><style type="text/css">
   <![CDATA[
    .fil0 {fill:black;fill-rule:nonzero}
   ]]>
  </style></defs><g id="Layer_x0020_1"><path class="fil0" d="M222.85 212.45c43.01,0 77.88,34.87 77.88,77.88 0,43.01 -34.87,77.88 -77.88,77.88 -43.01,0 -77.88,-34.87 -77.88,-77.88 0,-43.01 34.87,-77.88 77.88,-77.88zm165.05 271.29c-27.27,0 -27.27,-41.47 0,-41.47l120.25 0c27.28,0 27.28,41.47 0,41.47l-120.25 0zm0 -182.46c-27.27,0 -27.27,-41.47 0,-41.47l120.25 0c27.28,0 27.28,41.47 0,41.47l-120.25 0zm0 91.23c-27.27,0 -27.27,-41.47 0,-41.47l120.25 0c27.28,0 27.28,41.47 0,41.47l-120.25 0zm310.15 248.39l0 82.38c0,11.45 -9.28,20.73 -20.73,20.73l-507.98 0c-11.45,0 -20.73,-9.28 -20.73,-20.73l0 -82.38 -119.47 0c-11.45,0 -20.73,-9.28 -20.73,-20.73l0 -496.79c0,-11.45 9.28,-20.73 20.73,-20.73l788.38 0c11.45,0 20.74,9.28 20.74,20.73l0 496.79c0,11.45 -9.29,20.73 -20.74,20.73l-119.47 0zm-507.98 0l0 61.64 466.52 0 0 -61.64 -466.52 0zm546.01 -250l31.18 41.4c16.41,21.73 -16.64,46.67 -33.04,24.94l-31.2 -41.41c-13.31,6.32 -28.2,9.86 -43.92,9.86 -56.64,0 -102.56,-45.93 -102.56,-102.57 0,-56.64 45.92,-102.57 102.56,-102.57 56.65,0 102.57,45.93 102.57,102.57 0,25.98 -9.66,49.71 -25.59,67.78zm-76.98 -128.88c-33.74,0 -61.1,27.36 -61.1,61.1 0,33.74 27.36,61.1 61.1,61.1 33.75,0 61.1,-27.36 61.1,-61.1 0,-33.74 -27.35,-61.1 -61.1,-61.1zm137.69 -117.9l-746.92 0 0 455.32c248.98,0 497.95,0 746.92,0l0 -455.32zm-573.94 230.32c62.68,0 113.88,51.21 113.88,113.88l0 22.05c0,11.45 -9.28,20.74 -20.73,20.74l-186.3 0c-11.45,0 -20.73,-9.29 -20.73,-20.74l0 -22.05c0,-62.67 51.2,-113.88 113.88,-113.88zm0 41.47c-39.79,0 -72.42,32.63 -72.42,72.41l0 1.32 144.83 0 0 -1.32c0,-39.78 -32.62,-72.41 -72.41,-72.41zm0 -162c-20.11,0 -36.42,16.31 -36.42,36.42 0,20.11 16.31,36.41 36.42,36.41 20.11,0 36.41,-16.3 36.41,-36.41 0,-20.11 -16.3,-36.42 -36.41,-36.42z"/></g></svg>