<?xml version="1.0" standalone="no"?>
<!DOCTYPE svg PUBLIC "-//W3C//DTD SVG 20010904//EN"
 "http://www.w3.org/TR/2001/REC-SVG-20010904/DTD/svg10.dtd">
<svg version="1.0" xmlns="http://www.w3.org/2000/svg"
 width="512.000000pt" height="512.000000pt" viewBox="0 0 512.000000 512.000000"
 preserveAspectRatio="xMidYMid meet">

<g transform="translate(0.000000,512.000000) scale(0.100000,-0.100000)"
fill="#000000" stroke="none">
<path d="M2355 5110 c-131 -15 -243 -40 -380 -85 -240 -78 -463 -206 -657
-376 -66 -59 -67 -59 -130 -59 -109 -1 -198 -57 -244 -155 -21 -44 -24 -65
-24 -166 l0 -116 -49 -104 c-89 -189 -153 -426 -169 -624 l-7 -90 -55 -6 c-71
-8 -126 -36 -177 -91 -67 -73 -75 -114 -71 -355 3 -192 5 -211 25 -249 35 -66
70 -101 130 -130 50 -25 69 -28 187 -32 l131 -5 59 -107 c32 -59 90 -149 128
-200 38 -51 67 -94 66 -95 -2 -1 -27 -15 -56 -30 -57 -31 -103 -81 -127 -139
-19 -46 -22 -437 -3 -500 8 -26 33 -62 68 -98 77 -79 123 -92 319 -86 164 5
193 13 261 74 66 60 83 103 88 222 2 56 6 102 7 102 2 0 42 -18 90 -40 53 -25
86 -45 83 -53 -2 -6 -80 -225 -174 -484 l-169 -473 -215 0 c-231 0 -253 -4
-279 -51 -20 -37 0 -84 41 -98 22 -8 566 -11 1769 -11 l1739 0 0 -125 0 -125
-290 0 -291 0 -24 -25 c-32 -31 -32 -69 0 -100 l24 -25 339 0 c328 0 340 1
366 21 l26 20 0 229 c0 126 -3 236 -6 244 -15 39 -33 41 -574 46 l-524 5 -168
465 c-92 256 -170 473 -173 482 -5 14 11 26 81 58 48 22 88 40 90 40 2 0 4
-35 4 -78 0 -144 48 -234 154 -290 50 -26 55 -27 221 -27 166 0 171 1 227 28
60 29 106 78 136 144 14 32 17 70 17 253 0 197 -2 219 -21 260 -31 66 -70 108
-131 138 l-54 28 32 39 c52 65 154 225 190 296 l32 66 132 5 c119 4 138 7 189
32 30 15 71 45 90 68 59 68 66 105 66 338 l0 207 -31 63 c-46 91 -132 148
-226 149 l-42 1 -6 58 c-30 274 -85 483 -175 661 -37 74 -38 79 -42 206 -5
147 -15 179 -75 245 -52 59 -121 90 -200 90 -62 0 -62 0 -135 64 -266 232
-586 384 -928 441 -114 19 -394 27 -505 15z m355 -165 c49 -25 70 -61 70 -121
l0 -54 -225 0 -225 0 0 48 c0 58 28 108 73 127 46 20 268 20 307 0z m-525
-257 c0 -231 1 -245 22 -284 45 -85 155 -154 245 -154 l28 0 0 -259 0 -259
-43 -10 c-23 -6 -69 -25 -102 -41 l-60 -31 -302 303 -303 302 0 56 c0 109 -49
195 -142 248 l-51 29 64 47 c155 114 354 212 549 269 47 14 87 25 90 25 3 1 5
-108 5 -241z m848 212 c99 -27 232 -80 327 -131 86 -47 230 -142 254 -168 15
-17 14 -19 -11 -30 -96 -44 -154 -135 -161 -252 l-4 -77 -299 -298 -298 -298
-58 31 c-32 18 -79 37 -105 43 l-48 12 0 258 0 257 50 6 c99 12 184 70 227
155 16 33 18 65 18 279 0 211 2 242 15 239 8 -3 50 -14 93 -26z m-255 -354
c-4 -82 -19 -108 -75 -132 -41 -17 -244 -18 -293 -1 -53 18 -80 67 -80 143 l0
64 226 0 226 0 -4 -74z m-1301 -140 c33 -30 37 -39 41 -95 l4 -61 -226 0 -226
0 0 50 c0 28 7 64 15 80 26 51 55 59 213 60 l142 0 37 -34z m2510 14 c41 -25
53 -48 56 -112 l2 -53 -227 -3 -228 -2 0 45 c0 53 19 95 56 124 24 19 40 21
168 21 122 0 145 -3 173 -20z m-2469 -390 c-3 -63 -7 -73 -36 -103 l-32 -32
-143 -3 c-117 -3 -147 -1 -173 13 -45 24 -64 63 -64 134 l0 61 226 0 226 0 -4
-70z m2529 5 c-12 -125 -43 -145 -229 -145 -116 0 -137 3 -166 20 -41 25 -62
73 -62 140 l0 50 231 0 232 0 -6 -65z m-1902 -534 c-13 -20 -34 -66 -46 -103
l-22 -68 -615 0 -615 0 7 87 c8 107 37 252 72 358 14 44 28 82 30 84 2 2 15
-11 30 -28 14 -17 47 -44 73 -59 46 -27 48 -27 231 -27 164 0 190 2 225 20 84
42 144 127 153 219 l5 48 247 -247 248 -248 -23 -36z m1325 390 c27 -54 76
-100 135 -127 46 -22 63 -24 215 -24 189 0 223 10 297 82 l41 41 32 -99 c33
-105 67 -283 71 -374 l3 -55 -616 -3 -616 -2 -12 47 c-6 27 -25 74 -43 106
l-31 58 245 245 244 244 7 -50 c5 -28 17 -68 28 -89z m-772 -341 c114 -57 173
-148 180 -275 5 -104 -20 -175 -86 -243 -73 -74 -128 -97 -237 -97 -78 0 -97
4 -140 27 -66 34 -119 87 -153 151 -23 45 -27 63 -27 142 0 78 4 97 28 147 56
114 162 177 298 177 65 1 84 -3 137 -29z m-1769 -384 c40 -21 60 -56 67 -120
l7 -56 -232 0 -231 0 0 40 c0 57 23 106 62 130 29 17 50 20 166 20 97 0 141
-4 161 -14z m1165 -36 c7 -25 26 -70 42 -102 l31 -56 -437 -437 -438 -438 -63
79 c-72 91 -141 195 -184 276 l-29 56 47 51 c76 81 81 99 85 313 4 170 -2 241
-23 291 -7 16 18 17 475 15 l483 -3 11 -45z m1891 33 c-18 -47 -27 -163 -23
-308 6 -187 21 -238 93 -304 l42 -39 -36 -68 c-20 -38 -53 -94 -72 -124 -45
-69 -157 -210 -167 -210 -4 0 -202 195 -441 434 l-433 433 25 44 c14 24 33 70
42 102 l16 57 481 0 c453 0 480 -1 473 -17z m515 4 c41 -21 70 -74 70 -128 l0
-49 -225 0 -225 0 0 51 c0 61 22 102 64 123 40 20 278 22 316 3z m-2180 -336
c0 -11 -409 -1143 -415 -1149 -6 -7 -97 32 -172 74 -57 32 -63 38 -63 67 0 76
-83 189 -164 222 l-39 17 403 403 c397 397 404 403 427 388 12 -8 23 -19 23
-22z m919 -365 l403 -403 -45 -22 c-81 -39 -139 -120 -156 -215 -6 -39 -10
-42 -96 -88 -154 -80 -109 -148 -348 519 l-208 577 23 18 c13 10 23 18 23 18
0 0 182 -182 404 -404z m-2241 345 c8 -55 -9 -114 -43 -148 l-33 -33 -150 0
c-136 0 -152 2 -176 21 -39 31 -56 71 -56 134 l0 55 228 -2 227 -3 3 -24z
m3572 -27 c0 -67 -20 -114 -59 -137 -40 -23 -287 -25 -331 -2 -41 21 -60 63
-60 135 l0 60 225 0 225 0 0 -56z m-2090 -619 l0 -615 -44 0 c-54 0 -258 34
-333 56 -32 9 -53 21 -50 27 2 7 96 267 208 580 112 312 207 567 211 567 5 0
8 -277 8 -615z m179 585 c5 -17 99 -276 207 -577 156 -434 194 -547 183 -554
-35 -21 -292 -68 -376 -69 l-43 0 0 615 c0 359 4 615 9 615 5 0 14 -14 20 -30z
m-1214 -844 c46 -20 75 -69 75 -128 l0 -48 -225 0 -225 0 0 53 c0 59 16 89 64
118 26 16 51 19 154 19 84 0 133 -5 157 -14z m2554 -20 c32 -30 51 -79 51
-128 l0 -28 -230 0 -230 0 0 43 c0 57 27 108 70 130 30 15 56 17 172 15 136
-3 137 -3 167 -32z m-2479 -366 c0 -69 -17 -109 -57 -136 -22 -15 -51 -19
-143 -22 -131 -4 -186 6 -220 44 -21 21 -25 38 -28 100 l-4 74 226 0 226 0 0
-60z m2524 -8 c-2 -119 -51 -152 -224 -152 -138 0 -187 17 -213 73 -17 35 -23
127 -10 141 4 3 106 5 227 4 l221 -3 -1 -63z m-1830 -94 c0 -1 -8 -26 -18 -55
-14 -44 -17 -84 -14 -265 3 -238 8 -258 78 -328 69 -69 93 -75 300 -75 183 0
185 0 231 27 54 32 95 77 120 133 16 35 19 68 19 260 0 196 -3 225 -20 263
-10 23 -18 42 -17 42 1 1 52 14 112 29 61 16 111 28 111 27 4 -4 324 -899 324
-907 0 -5 -349 -9 -885 -9 -487 0 -885 3 -885 6 0 7 319 894 325 904 4 6 221
-45 219 -52z m506 -43 c39 -20 60 -63 60 -125 l0 -50 -225 0 -225 0 0 46 c0
57 21 104 58 126 38 24 288 26 332 3z m60 -386 c0 -71 -19 -110 -64 -134 -26
-14 -56 -16 -173 -13 l-143 3 -32 32 c-29 30 -33 40 -36 103 l-4 70 226 0 226
0 0 -61z"/>
<path d="M451 549 c-49 -20 -50 -29 -51 -272 l0 -228 25 -24 24 -25 1613 0
c1733 1 1636 -2 1657 51 11 30 -8 83 -34 93 -9 3 -718 6 -1576 6 l-1559 0 0
124 0 124 101 4 c96 3 102 4 125 31 30 35 30 59 0 94 -24 28 -25 28 -163 30
-76 1 -149 -2 -162 -8z"/>
</g>
</svg>
