<?xml version="1.0" ?><!DOCTYPE svg  PUBLIC '-//W3C//DTD SVG 1.1//EN'  'http://www.w3.org/Graphics/SVG/1.1/DTD/svg11.dtd'><svg height="512px" style="enable-background:new 0 0 512 512;" version="1.1" viewBox="0 0 512 512" width="512px" xml:space="preserve" xmlns="http://www.w3.org/2000/svg" xmlns:xlink="http://www.w3.org/1999/xlink"><g id="_x35_94_x2C__Api_x2C__app_x2C__coding_x2C__developer_x2C__software"><g><path d="M94.815,412.633V158.114H30.993v254.519H94.815z M101.601,158.114v254.519    h358.112V158.114H101.601z M60.698,121.459c-1.076-1.075-2.565-1.766-4.22-1.766s-3.144,0.69-4.219,1.766    c-1.104,1.076-1.766,2.593-1.766,4.221c0,1.654,0.662,3.172,1.766,4.247c1.076,1.075,2.564,1.737,4.219,1.737    s3.145-0.662,4.22-1.737s1.765-2.593,1.765-4.247C62.463,124.052,61.774,122.535,60.698,121.459z M56.478,112.937    c3.53,0,6.702,1.435,9.019,3.724c2.316,2.316,3.751,5.516,3.751,9.02c0,3.53-1.435,6.729-3.751,9.047    c-2.317,2.289-5.489,3.723-9.019,3.723c-3.531,0-6.729-1.434-9.019-3.723c-2.317-2.317-3.752-5.517-3.752-9.047    c0-3.504,1.435-6.703,3.752-9.02C49.749,114.371,52.947,112.937,56.478,112.937z M90.568,121.459    c-1.076-1.075-2.593-1.766-4.248-1.766c-1.627,0-3.145,0.69-4.22,1.766c-1.076,1.076-1.737,2.593-1.737,4.221    c0,1.654,0.661,3.172,1.737,4.247s2.593,1.737,4.22,1.737c1.655,0,3.172-0.662,4.248-1.737s1.737-2.593,1.737-4.247    C92.306,124.052,91.644,122.535,90.568,121.459z M86.321,112.937c3.531,0,6.729,1.435,9.047,3.724    c2.289,2.316,3.724,5.516,3.724,9.02c0,3.53-1.435,6.729-3.724,9.047c-2.317,2.289-5.516,3.723-9.047,3.723    c-3.502,0-6.702-1.434-9.019-3.723c-2.29-2.317-3.723-5.517-3.723-9.047c0-3.504,1.434-6.703,3.723-9.02    C79.619,114.371,82.818,112.937,86.321,112.937z M120.411,121.459c-1.076-1.075-2.565-1.766-4.22-1.766    c-1.655,0-3.145,0.69-4.22,1.766c-1.103,1.076-1.766,2.593-1.766,4.221c0,1.654,0.663,3.172,1.766,4.247    c1.076,1.075,2.565,1.737,4.22,1.737c1.654,0,3.144-0.662,4.22-1.737s1.766-2.593,1.766-4.247    C122.177,124.052,121.487,122.535,120.411,121.459z M116.191,112.937c3.53,0,6.729,1.435,9.019,3.724    c2.316,2.316,3.751,5.516,3.751,9.02c0,3.53-1.435,6.729-3.751,9.047c-2.29,2.289-5.489,3.723-9.019,3.723    c-3.531,0-6.729-1.434-9.02-3.723c-2.316-2.317-3.751-5.517-3.751-9.047c0-3.504,1.435-6.703,3.751-9.02    C109.462,114.371,112.661,112.937,116.191,112.937z M299.688,274.479c-5.378-5.378-12.797-8.716-20.989-8.716    c-8.219,0-15.639,3.338-21.017,8.716s-8.688,12.798-8.688,20.989c0,8.219,3.31,15.638,8.688,21.016    c5.378,5.379,12.798,8.689,21.017,8.689c8.192,0,15.611-3.311,20.989-8.689c5.379-5.378,8.688-12.797,8.688-21.016    C308.376,287.277,305.066,279.857,299.688,274.479z M278.698,259.006c10.067,0,19.197,4.082,25.789,10.675    c6.592,6.591,10.675,15.721,10.675,25.788c0,10.066-4.083,19.196-10.675,25.815c-6.592,6.592-15.722,10.675-25.789,10.675    c-10.094,0-19.224-4.083-25.815-10.675c-6.592-6.619-10.673-15.749-10.673-25.815c0-10.067,4.082-19.197,10.673-25.788    C259.475,263.088,268.604,259.006,278.698,259.006z M185.171,301.95v-15.859l25.402-3.806c0.303-1.655,0.662-3.228,1.076-4.772    c0.414-1.571,0.883-3.144,1.434-4.688l-20.079-15.996l9.377-16.246l23.913,9.404c1.076-1.24,2.179-2.453,3.337-3.584    c1.131-1.131,2.316-2.234,3.558-3.338l-9.377-23.885l16.246-9.379l15.996,20.08c1.545-0.552,3.118-1.049,4.662-1.461    c1.545-0.414,3.145-0.773,4.771-1.076l3.807-25.402h18.782l3.807,25.402c1.627,0.303,3.227,0.662,4.771,1.076    c1.572,0.44,3.116,0.909,4.688,1.461l15.997-20.08l16.218,9.379l-9.378,23.885c1.242,1.076,2.455,2.207,3.586,3.365    c1.131,1.104,2.234,2.316,3.338,3.557l23.885-9.377l9.377,16.219l-20.078,15.996c0.552,1.545,1.02,3.117,1.434,4.688    c0.414,1.545,0.8,3.117,1.104,4.744l25.402,3.834v18.782l-25.402,3.807c-0.304,1.627-0.689,3.227-1.104,4.744    c-0.414,1.572-0.882,3.145-1.434,4.688l20.078,15.997l-9.377,16.246l-23.885-9.406c-1.104,1.27-2.207,2.455-3.338,3.586    c-1.158,1.158-2.344,2.262-3.586,3.337l9.378,23.913l-16.218,9.378l-15.997-20.079c-1.572,0.524-3.116,1.02-4.716,1.434    c-1.518,0.414-3.117,0.772-4.744,1.076l-3.807,25.402h-18.782l-3.807-25.402c-1.627-0.304-3.227-0.662-4.743-1.076    c-1.572-0.414-3.145-0.909-4.69-1.434l-15.996,20.079l-16.246-9.378l9.377-23.913c-1.241-1.075-2.427-2.206-3.558-3.31    c-1.158-1.158-2.262-2.344-3.337-3.613l-23.913,9.406l-9.377-16.246l20.079-15.997c-0.523-1.544-1.02-3.116-1.434-4.688    c-0.414-1.518-0.773-3.117-1.076-4.744l-25.402-3.807V301.95z M191.929,295.469v3.557l24.492,3.697l0.386,2.455    c0.331,2.123,0.8,4.33,1.379,6.509s1.269,4.303,2.041,6.343l0.911,2.316l-19.362,15.447l3.558,6.15l23.057-9.075l1.572,1.931    c1.379,1.711,2.868,3.365,4.469,4.965c1.599,1.6,3.254,3.117,4.937,4.439l1.93,1.572l-9.074,23.059l6.15,3.559l15.445-19.362    l2.317,0.883c2.014,0.8,4.165,1.489,6.344,2.068c2.178,0.579,4.357,1.048,6.509,1.378l2.455,0.388l3.695,24.464h7.116    l3.669-24.464l2.453-0.388c2.151-0.33,4.331-0.799,6.51-1.378c2.206-0.579,4.331-1.269,6.371-2.068l2.317-0.883l15.417,19.362    l6.15-3.559l-9.073-23.059l1.931-1.572c1.711-1.378,3.365-2.867,4.965-4.467c1.627-1.6,3.116-3.256,4.469-4.938l1.543-1.931    l23.059,9.075l3.559-6.18l-19.362-15.418l0.909-2.316c0.772-2.04,1.463-4.164,2.041-6.343c0.607-2.206,1.076-4.386,1.379-6.509    l0.387-2.483l24.492-3.669v-7.115l-24.492-3.668l-0.387-2.455c-0.303-2.151-0.771-4.33-1.379-6.509    c-0.578-2.207-1.269-4.33-2.041-6.371l-0.909-2.317l19.362-15.418l-3.559-6.15l-23.059,9.075l-1.543-1.958    c-1.353-1.656-2.842-3.311-4.469-4.938c-1.572-1.572-3.254-3.09-4.965-4.469l-1.931-1.544l9.073-23.085l-6.15-3.559l-15.417,19.39    l-2.317-0.91c-2.04-0.772-4.165-1.489-6.343-2.069c-2.207-0.578-4.387-1.048-6.538-1.379l-2.453-0.386l-3.669-24.465h-7.116    l-3.695,24.465l-2.455,0.386c-2.151,0.331-4.331,0.801-6.509,1.379c-2.207,0.607-4.33,1.297-6.344,2.069l-2.317,0.91    l-15.418-19.39l-6.177,3.559l9.074,23.085l-1.93,1.544c-1.683,1.352-3.338,2.842-4.937,4.469    c-1.601,1.571-3.089,3.254-4.469,4.965l-1.572,1.931l-23.057-9.075l-3.558,6.15l19.362,15.418l-0.911,2.317    c-0.772,2.041-1.461,4.164-2.041,6.344c-0.579,2.206-1.048,4.385-1.379,6.536l-0.386,2.455l-24.492,3.668V295.469z     M399.394,298.861c-1.876,0.055-3.53,0.827-4.743,2.041c-1.242,1.241-2.014,2.951-2.041,4.826v0.083v0.083v65.146    c0,3.777-1.545,7.227-4.027,9.708c-2.482,2.455-5.93,3.999-9.708,3.999h-4.772c-1.875,0-3.392-1.517-3.392-3.365    c0-1.875,1.517-3.393,3.392-3.393h4.772c1.903,0,3.64-0.799,4.909-2.041c1.268-1.268,2.04-3.006,2.04-4.908v-65.146v-0.083v-0.083    v-0.082l0,0c0.056-3.725,1.601-7.089,4.027-9.544l0.689-0.634l-0.689-0.635c-2.427-2.427-3.972-5.82-4.027-9.516l0,0v-0.082v-0.11    v-0.083v-65.119c0-1.903-0.772-3.668-2.04-4.909c-1.27-1.269-3.006-2.042-4.909-2.042h-4.772c-1.875,0-3.392-1.517-3.392-3.392    c0-1.876,1.517-3.393,3.392-3.393h4.772c3.778,0,7.226,1.545,9.708,4.026c2.482,2.482,4.027,5.931,4.027,9.709v65.119v0.083v0.11    c0.027,1.875,0.799,3.558,2.041,4.799c1.213,1.214,2.896,2.014,4.743,2.041h0.083h0.082h4.772c1.876,0,3.392,1.545,3.392,3.393    c0,1.875-1.516,3.393-3.392,3.393h-4.772h-0.082H399.394z M168.016,295.469l0.689,0.634c2.455,2.455,3.972,5.819,4.027,9.544l0,0    v0.082v0.083v0.083v65.146c0,1.902,0.799,3.641,2.041,4.908c1.269,1.242,3.006,2.041,4.909,2.041h4.772    c1.875,0,3.392,1.518,3.392,3.393c0,1.849-1.517,3.365-3.392,3.365h-4.772c-3.778,0-7.226-1.544-9.708-3.999    c-2.482-2.481-4.027-5.931-4.027-9.708v-65.146v-0.083v-0.083c0-1.875-0.799-3.585-2.041-4.826    c-1.213-1.214-2.868-1.986-4.716-2.041h-0.083h-0.083h-4.799c-1.876,0-3.393-1.518-3.393-3.393c0-1.848,1.517-3.393,3.393-3.393    h4.799h0.083h0.083c1.848-0.027,3.502-0.827,4.716-2.041l0.166-0.139c1.131-1.213,1.875-2.867,1.875-4.66v-0.11v-0.083v-65.119    c0-3.778,1.545-7.227,4.027-9.709c2.482-2.481,5.93-4.026,9.708-4.026h4.772c1.875,0,3.392,1.517,3.392,3.393    c0,1.875-1.517,3.392-3.392,3.392h-4.772c-1.903,0-3.641,0.773-4.909,2.042c-1.241,1.241-2.041,3.006-2.041,4.909v65.119v0.083    v0.11v0.082l0,0c-0.028,3.586-1.49,6.867-3.834,9.295l-0.193,0.221L168.016,295.469z M485.999,64.753H41.143v28.519h421.963    c1.848,0,3.392,1.518,3.392,3.393v43.191h19.501V64.753z M71.786,432.354c-1.875,0-3.392-1.519-3.392-3.394    c0-1.876,1.517-3.393,3.392-3.393h247.706c1.876,0,3.394,1.517,3.394,3.393c0,1.875-1.518,3.394-3.394,3.394H71.786z     M203.816,447.247c-1.848,0-3.365-1.545-3.365-3.393c0-1.876,1.517-3.392,3.365-3.392h193.15c1.875,0,3.393,1.516,3.393,3.392    c0,1.848-1.518,3.393-3.393,3.393H203.816z M416.742,447.247c-1.876,0-3.393-1.545-3.393-3.393c0-1.876,1.517-3.392,3.393-3.392    h24.133c1.876,0,3.393,1.516,3.393,3.392c0,1.848-1.517,3.393-3.393,3.393H416.742z M29.394,446.917    c-1.875,0-3.392-1.519-3.392-3.394c0-1.874,1.517-3.393,3.392-3.393h91.514c1.875,0,3.392,1.519,3.392,3.393    c0,1.875-1.517,3.394-3.392,3.394H29.394z M30.993,151.33h67.298h361.422v-7.998v-0.084v-43.191H37.668h-6.675V151.33z" style="fill-rule:evenodd;clip-rule:evenodd;"/></g></g><g id="Layer_1"/></svg>