<?xml version="1.0" standalone="no"?>
<!DOCTYPE svg PUBLIC "-//W3C//DTD SVG 20010904//EN"
 "http://www.w3.org/TR/2001/REC-SVG-20010904/DTD/svg10.dtd">
<svg version="1.0" xmlns="http://www.w3.org/2000/svg"
 width="100.000000pt" height="100.000000pt" viewBox="0 0 100.000000 100.000000"
 preserveAspectRatio="xMidYMid meet">

<g transform="translate(0.000000,100.000000) scale(0.100000,-0.100000)"
fill="#000000" stroke="none">
<path d="M432 969 c-46 -14 -109 -79 -122 -128 -9 -34 -15 -41 -35 -41 -37 0
-61 -42 -48 -85 13 -41 10 -45 -34 -45 -38 0 -73 -15 -73 -31 0 -5 -22 -42
-50 -81 -27 -39 -50 -78 -50 -87 0 -9 16 -25 36 -36 41 -22 64 -60 64 -105 0
-22 10 -41 32 -63 25 -25 32 -42 34 -77 2 -38 9 -51 43 -82 26 -25 50 -38 68
-38 15 0 53 -7 83 -15 82 -22 95 -20 119 20 11 20 28 38 37 42 9 3 58 -16 120
-48 l104 -54 34 19 c19 10 46 31 61 46 26 27 26 28 9 62 l-17 36 57 100 c31
55 56 106 56 114 0 8 -10 23 -21 34 -25 22 -49 74 -49 106 0 16 11 29 37 43
31 16 40 28 47 62 11 54 2 89 -29 109 -22 14 -33 15 -87 4 l-61 -12 -24 31
c-15 19 -34 31 -48 31 -20 0 -26 8 -35 41 -7 23 -27 56 -50 79 -55 55 -127 72
-208 49z m156 -56 c102 -76 89 -189 -41 -375 -22 -32 -43 -58 -48 -58 -21 0
-141 208 -154 268 -15 72 23 148 90 178 40 19 120 12 153 -13z m-282 -180 c17
-71 167 -313 194 -313 27 0 177 242 194 313 8 35 29 34 56 -3 23 -33 48 -37
113 -19 48 13 77 4 77 -24 0 -46 -13 -68 -51 -88 -33 -16 -39 -24 -39 -52 0
-49 18 -103 44 -135 l24 -28 -54 -94 c-56 -99 -61 -118 -43 -151 8 -16 7 -25
-8 -41 -38 -42 -49 -42 -129 2 -42 23 -95 48 -117 56 l-42 15 -31 -34 c-17
-18 -33 -40 -36 -47 -3 -11 -16 -10 -71 3 -36 9 -74 17 -85 17 -31 0 -69 50
-75 100 -4 33 -13 51 -35 70 -23 20 -30 36 -35 75 -4 43 -11 55 -46 86 -23 20
-41 40 -41 44 0 5 68 107 97 144 2 3 22 6 46 7 23 0 45 2 48 3 13 2 17 42 8
73 -4 17 -6 35 -3 39 11 19 34 8 40 -18z"/>
<path d="M445 835 c-16 -15 -25 -36 -25 -55 0 -19 9 -40 25 -55 49 -50 135
-15 135 55 0 41 -39 80 -80 80 -19 0 -40 -9 -55 -25z m85 -30 c26 -32 -13 -81
-47 -59 -35 22 -23 74 17 74 10 0 23 -7 30 -15z"/>
<path d="M316 444 c-9 -8 -16 -24 -16 -34 0 -43 54 -65 84 -34 31 30 9 84 -34
84 -10 0 -26 -7 -34 -16z"/>
</g>
</svg>
