<?xml version="1.0" standalone="no"?>
<!DOCTYPE svg PUBLIC "-//W3C//DTD SVG 20010904//EN"
 "http://www.w3.org/TR/2001/REC-SVG-20010904/DTD/svg10.dtd">
<svg version="1.0" xmlns="http://www.w3.org/2000/svg"
 width="64.000000pt" height="64.000000pt" viewBox="0 0 64.000000 64.000000"
 preserveAspectRatio="xMidYMid meet">

<g transform="translate(0.000000,64.000000) scale(0.100000,-0.100000)"
fill="#000000" stroke="none">
<path d="M60 561 c-14 -26 -14 -456 0 -482 10 -18 23 -19 236 -19 l226 0 11
30 c8 21 18 30 34 30 21 0 23 5 23 50 0 47 -2 50 -25 50 -31 0 -33 17 -2 22
19 3 22 10 25 51 3 45 2 47 -22 47 -16 0 -26 6 -26 15 0 9 9 15 25 15 24 0 25
2 25 75 0 71 -1 75 -23 75 -16 0 -26 9 -34 30 l-11 30 -226 0 c-213 0 -226 -1
-236 -19z m65 -241 c0 -228 -1 -235 -20 -235 -19 0 -20 8 -23 225 -1 123 0
231 3 238 3 7 13 12 22 10 17 -3 18 -22 18 -238z m380 0 l0 -235 -177 -3 -178
-2 0 240 0 240 178 -2 177 -3 0 -235z m55 120 c0 -27 -4 -50 -10 -50 -5 0 -10
23 -10 50 0 28 5 50 10 50 6 0 10 -22 10 -50z m0 -145 c0 -14 -4 -25 -10 -25
-5 0 -10 11 -10 25 0 14 5 25 10 25 6 0 10 -11 10 -25z m0 -130 c0 -14 -4 -25
-10 -25 -5 0 -10 11 -10 25 0 14 5 25 10 25 6 0 10 -11 10 -25z"/>
<path d="M182 388 l3 -143 150 0 150 0 3 143 3 142 -156 0 -156 0 3 -142z
m278 2 l0 -120 -130 0 -130 0 0 120 0 120 130 0 130 0 0 -120z"/>
<path d="M288 465 c-9 -19 -8 -29 6 -50 16 -24 16 -25 -3 -25 -28 0 -43 -24
-39 -67 l3 -38 78 -3 78 -3 -3 48 c-2 39 -7 50 -25 58 -25 11 -29 20 -13 30
14 9 13 48 -2 63 -22 22 -67 14 -80 -13z m65 -7 c6 -19 -3 -38 -18 -38 -18 0
-28 17 -21 35 7 18 33 20 39 3z m35 -120 c3 -28 2 -28 -52 -28 -52 0 -56 2
-56 23 0 33 8 38 60 35 41 -3 45 -6 48 -30z"/>
<path d="M192 208 c3 -9 39 -14 124 -16 125 -3 169 2 159 18 -10 16 -288 13
-283 -2z"/>
<path d="M190 170 c0 -6 53 -10 140 -10 87 0 140 4 140 10 0 6 -53 10 -140 10
-87 0 -140 -4 -140 -10z"/>
<path d="M190 130 c0 -6 32 -10 75 -10 43 0 75 4 75 10 0 6 -32 10 -75 10 -43
0 -75 -4 -75 -10z"/>
</g>
</svg>
